<?xml version="1.0" standalone="no"?>
<!DOCTYPE svg PUBLIC "-//W3C//DTD SVG 20010904//EN"
 "http://www.w3.org/TR/2001/REC-SVG-20010904/DTD/svg10.dtd">
<svg version="1.0" xmlns="http://www.w3.org/2000/svg"
 width="409.000000pt" height="409.000000pt" viewBox="0 0 409.000000 409.000000"
 preserveAspectRatio="xMidYMid meet">

<g transform="translate(0.000000,409.000000) scale(0.100000,-0.100000)"
fill="#000000" stroke="none">
<path d="M1845 4079 c-807 -83 -1499 -643 -1740 -1409 -227 -722 -43 -1506
478 -2039 337 -344 754 -552 1227 -611 109 -13 371 -13 480 0 670 83 1255 486
1568 1080 229 435 292 961 172 1441 -245 983 -1180 1641 -2185 1538z m530
-429 c434 -93 815 -353 1048 -715 104 -161 184 -357 229 -557 21 -92 23 -128
22 -333 0 -197 -3 -244 -21 -325 -111 -494 -408 -888 -843 -1118 -473 -250
-1047 -250 -1520 0 -384 203 -675 552 -799 958 -58 190 -66 246 -66 490 0 199
3 237 23 328 92 409 304 737 636 987 200 150 426 245 701 296 141 26 446 21
590 -11z"/>
<path d="M2290 3058 c-27 -7 -134 -108 -473 -446 -241 -240 -447 -454 -458
-474 -23 -45 -25 -124 -3 -176 21 -50 829 -862 899 -903 128 -74 284 4 302
149 11 96 11 97 -376 485 l-356 357 352 353 c238 238 357 364 368 389 32 78 9
166 -58 225 -56 49 -122 63 -197 41z"/>
</g>
</svg>
