<?xml version="1.0" encoding="UTF-8"?>
<!DOCTYPE svg PUBLIC "-//W3C//DTD SVG 1.1//EN" "http://www.w3.org/Graphics/SVG/1.1/DTD/svg11.dtd">
<svg xmlns="http://www.w3.org/2000/svg" version="1.1" width="511px" height="511px" style="shape-rendering:geometricPrecision; text-rendering:geometricPrecision; image-rendering:optimizeQuality; fill-rule:evenodd; clip-rule:evenodd" xmlns:xlink="http://www.w3.org/1999/xlink">
<g><path style="opacity:0.977" fill="#000000" d="M 234.5,-0.5 C 248.833,-0.5 263.167,-0.5 277.5,-0.5C 370.403,11.0097 439.237,57.6763 484,139.5C 498.304,169.064 507.137,200.064 510.5,232.5C 510.5,247.167 510.5,261.833 510.5,276.5C 497.357,380.804 442.357,453.304 345.5,494C 254.892,524.564 171.559,511.231 95.5,454C 27.3323,396.574 -4.16773,323.074 1,233.5C 10.7022,142.86 54.8689,75.0265 133.5,30C 165.273,13.1459 198.94,2.97924 234.5,-0.5 Z M 237.5,51.5 C 313.363,48.0234 374.529,76.0234 421,135.5C 455.955,185.944 466.955,241.278 454,301.5C 433.641,374.522 387.808,423.689 316.5,449C 234.085,470.858 163.251,451.358 104,390.5C 57.1303,335.345 42.1303,272.345 59,201.5C 81.0277,129.473 127.861,81.9727 199.5,59C 212.095,55.3806 224.761,52.8806 237.5,51.5 Z"/></g>
<g><path style="opacity:1" fill="#4a5263" d="M 269.5,140.5 C 281.833,140.5 294.167,140.5 306.5,140.5C 306.5,140.833 306.5,141.167 306.5,141.5C 294.5,141.5 282.5,141.5 270.5,141.5C 270.823,147.69 270.49,153.69 269.5,159.5C 269.5,153.167 269.5,146.833 269.5,140.5 Z"/></g>
<g><path style="opacity:0.97" fill="#171324" d="M 379.5,212.5 C 373.167,212.5 366.833,212.5 360.5,212.5C 360.5,206.833 360.5,201.167 360.5,195.5C 354.5,195.5 348.5,195.5 342.5,195.5C 342.5,189.5 342.5,183.5 342.5,177.5C 336.5,177.5 330.5,177.5 324.5,177.5C 324.5,171.5 324.5,165.5 324.5,159.5C 324.5,153.5 324.5,147.5 324.5,141.5C 318.69,140.51 312.69,140.177 306.5,140.5C 294.167,140.5 281.833,140.5 269.5,140.5C 269.5,134.5 269.5,128.5 269.5,122.5C 288.167,122.5 306.833,122.5 325.5,122.5C 325.5,128.5 325.5,134.5 325.5,140.5C 331.167,140.5 336.833,140.5 342.5,140.5C 342.5,152.5 342.5,164.5 342.5,176.5C 348.5,176.5 354.5,176.5 360.5,176.5C 360.5,182.5 360.5,188.5 360.5,194.5C 366.833,194.5 373.167,194.5 379.5,194.5C 379.5,200.5 379.5,206.5 379.5,212.5 Z"/></g>
<g><path style="opacity:1" fill="#8a9ab3" d="M 306.5,141.5 C 306.5,147.5 306.5,153.5 306.5,159.5C 300.167,159.5 293.833,159.5 287.5,159.5C 287.5,165.5 287.5,171.5 287.5,177.5C 281.833,177.5 276.167,177.5 270.5,177.5C 270.5,183.5 270.5,189.5 270.5,195.5C 264.5,195.5 258.5,195.5 252.5,195.5C 252.5,201.5 252.5,207.5 252.5,213.5C 246.5,213.5 240.5,213.5 234.5,213.5C 234.5,201.5 234.5,189.5 234.5,177.5C 240.5,177.5 246.5,177.5 252.5,177.5C 252.5,171.5 252.5,165.5 252.5,159.5C 258.167,159.5 263.833,159.5 269.5,159.5C 270.49,153.69 270.823,147.69 270.5,141.5C 282.5,141.5 294.5,141.5 306.5,141.5 Z"/></g>
<g><path style="opacity:1" fill="#9d4b47" d="M 306.5,140.5 C 312.69,140.177 318.69,140.51 324.5,141.5C 318.833,141.5 313.167,141.5 307.5,141.5C 307.5,147.5 307.5,153.5 307.5,159.5C 307.167,159.5 306.833,159.5 306.5,159.5C 306.5,153.5 306.5,147.5 306.5,141.5C 306.5,141.167 306.5,140.833 306.5,140.5 Z"/></g>
<g><path style="opacity:1" fill="#be492e" d="M 324.5,141.5 C 324.5,147.5 324.5,153.5 324.5,159.5C 318.833,159.5 313.167,159.5 307.5,159.5C 307.5,153.5 307.5,147.5 307.5,141.5C 313.167,141.5 318.833,141.5 324.5,141.5 Z"/></g>
<g><path style="opacity:1" fill="#596887" d="M 306.5,159.5 C 306.833,159.5 307.167,159.5 307.5,159.5C 313.167,159.5 318.833,159.5 324.5,159.5C 324.5,165.5 324.5,171.5 324.5,177.5C 330.5,177.5 336.5,177.5 342.5,177.5C 342.5,183.5 342.5,189.5 342.5,195.5C 348.5,195.5 354.5,195.5 360.5,195.5C 360.5,201.167 360.5,206.833 360.5,212.5C 360.5,212.833 360.5,213.167 360.5,213.5C 354.5,213.5 348.5,213.5 342.5,213.5C 342.5,219.5 342.5,225.5 342.5,231.5C 336.5,231.5 330.5,231.5 324.5,231.5C 324.5,237.5 324.5,243.5 324.5,249.5C 318.5,249.5 312.5,249.5 306.5,249.5C 306.5,255.5 306.5,261.5 306.5,267.5C 300.167,267.5 293.833,267.5 287.5,267.5C 287.5,261.5 287.5,255.5 287.5,249.5C 281.833,249.5 276.167,249.5 270.5,249.5C 270.5,243.5 270.5,237.5 270.5,231.5C 264.5,231.5 258.5,231.5 252.5,231.5C 252.5,225.5 252.5,219.5 252.5,213.5C 258.5,213.5 264.5,213.5 270.5,213.5C 270.5,207.5 270.5,201.5 270.5,195.5C 276.5,195.5 282.5,195.5 288.5,195.5C 288.5,189.5 288.5,183.5 288.5,177.5C 294.5,177.5 300.5,177.5 306.5,177.5C 306.5,171.5 306.5,165.5 306.5,159.5 Z"/></g>
<g><path style="opacity:0.942" fill="#171425" d="M 269.5,140.5 C 269.5,146.833 269.5,153.167 269.5,159.5C 263.833,159.5 258.167,159.5 252.5,159.5C 252.5,165.5 252.5,171.5 252.5,177.5C 246.5,177.5 240.5,177.5 234.5,177.5C 234.5,189.5 234.5,201.5 234.5,213.5C 234.5,219.5 234.5,225.5 234.5,231.5C 228.5,231.5 222.5,231.5 216.5,231.5C 216.167,231.5 215.833,231.5 215.5,231.5C 215.5,213.167 215.5,194.833 215.5,176.5C 221.833,176.5 228.167,176.5 234.5,176.5C 234.5,170.833 234.5,165.167 234.5,159.5C 240.167,159.5 245.833,159.5 251.5,159.5C 251.5,153.167 251.5,146.833 251.5,140.5C 257.5,140.5 263.5,140.5 269.5,140.5 Z"/></g>
<g><path style="opacity:1" fill="#bdc8da" d="M 306.5,159.5 C 306.5,165.5 306.5,171.5 306.5,177.5C 300.5,177.5 294.5,177.5 288.5,177.5C 288.5,183.5 288.5,189.5 288.5,195.5C 282.5,195.5 276.5,195.5 270.5,195.5C 270.5,189.5 270.5,183.5 270.5,177.5C 276.167,177.5 281.833,177.5 287.5,177.5C 287.5,171.5 287.5,165.5 287.5,159.5C 293.833,159.5 300.167,159.5 306.5,159.5 Z"/></g>
<g><path style="opacity:1" fill="#bec9da" d="M 270.5,195.5 C 270.5,201.5 270.5,207.5 270.5,213.5C 264.5,213.5 258.5,213.5 252.5,213.5C 252.5,207.5 252.5,201.5 252.5,195.5C 258.5,195.5 264.5,195.5 270.5,195.5 Z"/></g>
<g><path style="opacity:0.955" fill="#171323" d="M 379.5,212.5 C 385.167,212.5 390.833,212.5 396.5,212.5C 396.5,225.167 396.5,237.833 396.5,250.5C 390.833,250.5 385.167,250.5 379.5,250.5C 379.5,237.833 379.5,225.167 379.5,212.5 Z"/></g>
<g><path style="opacity:1" fill="#8b9bb4" d="M 360.5,213.5 C 360.5,225.5 360.5,237.5 360.5,249.5C 360.5,249.833 360.5,250.167 360.5,250.5C 360.5,256.167 360.5,261.833 360.5,267.5C 360.167,267.5 359.833,267.5 359.5,267.5C 359.5,261.5 359.5,255.5 359.5,249.5C 353.833,249.5 348.167,249.5 342.5,249.5C 342.5,255.5 342.5,261.5 342.5,267.5C 330.5,267.5 318.5,267.5 306.5,267.5C 306.5,261.5 306.5,255.5 306.5,249.5C 312.5,249.5 318.5,249.5 324.5,249.5C 324.5,243.5 324.5,237.5 324.5,231.5C 330.5,231.5 336.5,231.5 342.5,231.5C 342.5,225.5 342.5,219.5 342.5,213.5C 348.5,213.5 354.5,213.5 360.5,213.5 Z"/></g>
<g><path style="opacity:0.999" fill="#535763" d="M 360.5,213.5 C 360.5,213.167 360.5,212.833 360.5,212.5C 366.833,212.5 373.167,212.5 379.5,212.5C 379.5,225.167 379.5,237.833 379.5,250.5C 373.167,250.5 366.833,250.5 360.5,250.5C 360.5,250.167 360.5,249.833 360.5,249.5C 366.5,249.5 372.5,249.5 378.5,249.5C 378.5,237.5 378.5,225.5 378.5,213.5C 372.5,213.5 366.5,213.5 360.5,213.5 Z"/></g>
<g><path style="opacity:1" fill="#bd492e" d="M 234.5,213.5 C 240.5,213.5 246.5,213.5 252.5,213.5C 252.5,219.5 252.5,225.5 252.5,231.5C 246.5,231.5 240.5,231.5 234.5,231.5C 234.5,225.5 234.5,219.5 234.5,213.5 Z"/></g>
<g><path style="opacity:1" fill="#c0cbdc" d="M 360.5,213.5 C 366.5,213.5 372.5,213.5 378.5,213.5C 378.5,225.5 378.5,237.5 378.5,249.5C 372.5,249.5 366.5,249.5 360.5,249.5C 360.5,237.5 360.5,225.5 360.5,213.5 Z"/></g>
<g><path style="opacity:0.941" fill="#161324" d="M 215.5,231.5 C 215.5,237.167 215.5,242.833 215.5,248.5C 209.5,248.5 203.5,248.5 197.5,248.5C 197.5,242.833 197.5,237.167 197.5,231.5C 203.5,231.5 209.5,231.5 215.5,231.5 Z"/></g>
<g><path style="opacity:1" fill="#733d38" d="M 234.5,231.5 C 240.5,231.5 246.5,231.5 252.5,231.5C 252.5,237.5 252.5,243.5 252.5,249.5C 246.833,249.5 241.167,249.5 235.5,249.5C 235.5,255.5 235.5,261.5 235.5,267.5C 235.167,267.5 234.833,267.5 234.5,267.5C 234.5,255.5 234.5,243.5 234.5,231.5 Z"/></g>
<g><path style="opacity:1" fill="#bd492f" d="M 216.5,231.5 C 222.5,231.5 228.5,231.5 234.5,231.5C 234.5,243.5 234.5,255.5 234.5,267.5C 228.5,267.5 222.5,267.5 216.5,267.5C 216.5,261.5 216.5,255.5 216.5,249.5C 216.5,243.5 216.5,237.5 216.5,231.5 Z"/></g>
<g><path style="opacity:1" fill="#3e2832" d="M 252.5,231.5 C 258.5,231.5 264.5,231.5 270.5,231.5C 270.5,237.5 270.5,243.5 270.5,249.5C 264.5,249.5 258.5,249.5 252.5,249.5C 252.5,243.5 252.5,237.5 252.5,231.5 Z"/></g>
<g><path style="opacity:0.886" fill="#161324" d="M 197.5,248.5 C 197.5,254.5 197.5,260.5 197.5,266.5C 191.5,266.5 185.5,266.5 179.5,266.5C 179.5,260.5 179.5,254.5 179.5,248.5C 185.5,248.5 191.5,248.5 197.5,248.5 Z"/></g>
<g><path style="opacity:0.997" fill="#5b302a" d="M 215.5,231.5 C 215.833,231.5 216.167,231.5 216.5,231.5C 216.5,237.5 216.5,243.5 216.5,249.5C 210.5,249.5 204.5,249.5 198.5,249.5C 198.5,255.5 198.5,261.5 198.5,267.5C 192.5,267.5 186.5,267.5 180.5,267.5C 180.5,273.5 180.5,279.5 180.5,285.5C 174.5,285.5 168.5,285.5 162.5,285.5C 162.5,285.167 162.5,284.833 162.5,284.5C 168.167,284.5 173.833,284.5 179.5,284.5C 179.5,278.5 179.5,272.5 179.5,266.5C 185.5,266.5 191.5,266.5 197.5,266.5C 197.5,260.5 197.5,254.5 197.5,248.5C 203.5,248.5 209.5,248.5 215.5,248.5C 215.5,242.833 215.5,237.167 215.5,231.5 Z"/></g>
<g><path style="opacity:1" fill="#d67542" d="M 216.5,249.5 C 216.5,255.5 216.5,261.5 216.5,267.5C 210.5,267.5 204.5,267.5 198.5,267.5C 198.5,261.5 198.5,255.5 198.5,249.5C 204.5,249.5 210.5,249.5 216.5,249.5 Z"/></g>
<g><path style="opacity:1" fill="#3d2630" d="M 252.5,249.5 C 252.5,255.5 252.5,261.5 252.5,267.5C 246.833,267.5 241.167,267.5 235.5,267.5C 235.5,261.5 235.5,255.5 235.5,249.5C 241.167,249.5 246.833,249.5 252.5,249.5 Z"/></g>
<g><path style="opacity:1" fill="#bfcadb" d="M 359.5,267.5 C 353.833,267.5 348.167,267.5 342.5,267.5C 342.5,261.5 342.5,255.5 342.5,249.5C 348.167,249.5 353.833,249.5 359.5,249.5C 359.5,255.5 359.5,261.5 359.5,267.5 Z"/></g>
<g><path style="opacity:0.944" fill="#161223" d="M 360.5,250.5 C 366.833,250.5 373.167,250.5 379.5,250.5C 379.5,256.167 379.5,261.833 379.5,267.5C 373.167,267.5 366.833,267.5 360.5,267.5C 360.5,261.833 360.5,256.167 360.5,250.5 Z"/></g>
<g><path style="opacity:0.941" fill="#161324" d="M 179.5,266.5 C 179.5,272.5 179.5,278.5 179.5,284.5C 173.833,284.5 168.167,284.5 162.5,284.5C 162.5,278.5 162.5,272.5 162.5,266.5C 168.167,266.5 173.833,266.5 179.5,266.5 Z"/></g>
<g><path style="opacity:1" fill="#d67542" d="M 198.5,267.5 C 198.5,273.5 198.5,279.5 198.5,285.5C 192.5,285.5 186.5,285.5 180.5,285.5C 180.5,279.5 180.5,273.5 180.5,267.5C 186.5,267.5 192.5,267.5 198.5,267.5 Z"/></g>
<g><path style="opacity:1" fill="#bc492f" d="M 198.5,267.5 C 204.5,267.5 210.5,267.5 216.5,267.5C 216.5,273.5 216.5,279.5 216.5,285.5C 210.5,285.5 204.5,285.5 198.5,285.5C 198.5,279.5 198.5,273.5 198.5,267.5 Z"/></g>
<g><path style="opacity:1" fill="#723e38" d="M 216.5,267.5 C 222.5,267.5 228.5,267.5 234.5,267.5C 234.5,273.5 234.5,279.5 234.5,285.5C 228.5,285.5 222.5,285.5 216.5,285.5C 216.5,279.5 216.5,273.5 216.5,267.5 Z"/></g>
<g><path style="opacity:0.927" fill="#181425" d="M 252.5,249.5 C 258.5,249.5 264.5,249.5 270.5,249.5C 276.167,249.5 281.833,249.5 287.5,249.5C 287.5,255.5 287.5,261.5 287.5,267.5C 276.167,267.5 264.833,267.5 253.5,267.5C 253.5,273.5 253.5,279.5 253.5,285.5C 247.5,285.5 241.5,285.5 235.5,285.5C 235.5,291.833 235.5,298.167 235.5,304.5C 229.167,304.5 222.833,304.5 216.5,304.5C 216.5,310.5 216.5,316.5 216.5,322.5C 210.5,322.5 204.5,322.5 198.5,322.5C 198.5,328.167 198.5,333.833 198.5,339.5C 192.833,339.5 187.167,339.5 181.5,339.5C 181.5,345.5 181.5,351.5 181.5,357.5C 168.833,357.5 156.167,357.5 143.5,357.5C 143.5,351.5 143.5,345.5 143.5,339.5C 149.833,339.5 156.167,339.5 162.5,339.5C 168.5,339.5 174.5,339.5 180.5,339.5C 180.5,333.5 180.5,327.5 180.5,321.5C 186.5,321.5 192.5,321.5 198.5,321.5C 198.5,315.5 198.5,309.5 198.5,303.5C 204.5,303.5 210.5,303.5 216.5,303.5C 216.5,297.5 216.5,291.5 216.5,285.5C 222.5,285.5 228.5,285.5 234.5,285.5C 234.5,279.5 234.5,273.5 234.5,267.5C 234.833,267.5 235.167,267.5 235.5,267.5C 241.167,267.5 246.833,267.5 252.5,267.5C 252.5,261.5 252.5,255.5 252.5,249.5 Z"/></g>
<g><path style="opacity:1" fill="#bec8d9" d="M 306.5,267.5 C 318.5,267.5 330.5,267.5 342.5,267.5C 342.5,273.5 342.5,279.5 342.5,285.5C 330.5,285.5 318.5,285.5 306.5,285.5C 306.5,279.5 306.5,273.5 306.5,267.5 Z"/></g>
<g><path style="opacity:0.942" fill="#171324" d="M 287.5,267.5 C 293.833,267.5 300.167,267.5 306.5,267.5C 306.5,273.5 306.5,279.5 306.5,285.5C 300.167,285.5 293.833,285.5 287.5,285.5C 287.5,279.5 287.5,273.5 287.5,267.5 Z"/></g>
<g><path style="opacity:0.965" fill="#161223" d="M 342.5,267.5 C 348.167,267.5 353.833,267.5 359.5,267.5C 359.833,267.5 360.167,267.5 360.5,267.5C 360.5,273.5 360.5,279.5 360.5,285.5C 354.5,285.5 348.5,285.5 342.5,285.5C 342.5,279.5 342.5,273.5 342.5,267.5 Z"/></g>
<g><path style="opacity:0.922" fill="#161324" d="M 162.5,284.5 C 162.5,284.833 162.5,285.167 162.5,285.5C 162.5,291.5 162.5,297.5 162.5,303.5C 156.5,303.5 150.5,303.5 144.5,303.5C 144.167,303.5 143.833,303.5 143.5,303.5C 143.5,297.167 143.5,290.833 143.5,284.5C 149.833,284.5 156.167,284.5 162.5,284.5 Z"/></g>
<g><path style="opacity:1" fill="#d67542" d="M 162.5,285.5 C 168.5,285.5 174.5,285.5 180.5,285.5C 180.5,291.5 180.5,297.5 180.5,303.5C 174.5,303.5 168.5,303.5 162.5,303.5C 162.5,297.5 162.5,291.5 162.5,285.5 Z"/></g>
<g><path style="opacity:1" fill="#bd492f" d="M 180.5,285.5 C 186.5,285.5 192.5,285.5 198.5,285.5C 198.5,291.5 198.5,297.5 198.5,303.5C 192.5,303.5 186.5,303.5 180.5,303.5C 180.5,297.5 180.5,291.5 180.5,285.5 Z"/></g>
<g><path style="opacity:1" fill="#723e38" d="M 198.5,285.5 C 204.5,285.5 210.5,285.5 216.5,285.5C 216.5,291.5 216.5,297.5 216.5,303.5C 210.5,303.5 204.5,303.5 198.5,303.5C 198.5,297.5 198.5,291.5 198.5,285.5 Z"/></g>
<g><path style="opacity:0.945" fill="#171323" d="M 306.5,285.5 C 318.5,285.5 330.5,285.5 342.5,285.5C 342.5,291.833 342.5,298.167 342.5,304.5C 330.5,304.5 318.5,304.5 306.5,304.5C 306.5,298.167 306.5,291.833 306.5,285.5 Z"/></g>
<g><path style="opacity:0.991" fill="#171324" d="M 143.5,303.5 C 143.5,315.5 143.5,327.5 143.5,339.5C 131.833,339.5 120.167,339.5 108.5,339.5C 108.5,327.5 108.5,315.5 108.5,303.5C 120.167,303.5 131.833,303.5 143.5,303.5 Z"/></g>
<g><path style="opacity:1" fill="#bd4a2f" d="M 162.5,303.5 C 168.5,303.5 174.5,303.5 180.5,303.5C 180.5,309.5 180.5,315.5 180.5,321.5C 174.5,321.5 168.5,321.5 162.5,321.5C 162.5,315.5 162.5,309.5 162.5,303.5 Z"/></g>
<g><path style="opacity:1" fill="#743e38" d="M 180.5,303.5 C 186.5,303.5 192.5,303.5 198.5,303.5C 198.5,309.5 198.5,315.5 198.5,321.5C 192.5,321.5 186.5,321.5 180.5,321.5C 180.5,315.5 180.5,309.5 180.5,303.5 Z"/></g>
<g><path style="opacity:1" fill="#d67542" d="M 144.5,303.5 C 150.5,303.5 156.5,303.5 162.5,303.5C 162.5,309.5 162.5,315.5 162.5,321.5C 156.5,321.5 150.5,321.5 144.5,321.5C 144.5,315.5 144.5,309.5 144.5,303.5 Z"/></g>
<g><path style="opacity:1" fill="#b6472e" d="M 143.5,303.5 C 143.833,303.5 144.167,303.5 144.5,303.5C 144.5,309.5 144.5,315.5 144.5,321.5C 150.5,321.5 156.5,321.5 162.5,321.5C 162.5,327.5 162.5,333.5 162.5,339.5C 156.167,339.5 149.833,339.5 143.5,339.5C 143.5,327.5 143.5,315.5 143.5,303.5 Z"/></g>
<g><path style="opacity:1" fill="#743e38" d="M 162.5,321.5 C 168.5,321.5 174.5,321.5 180.5,321.5C 180.5,327.5 180.5,333.5 180.5,339.5C 174.5,339.5 168.5,339.5 162.5,339.5C 162.5,333.5 162.5,327.5 162.5,321.5 Z"/></g>
</svg>
